<svg width="70" height="65" viewBox="0 0 70 65" fill="none" xmlns="http://www.w3.org/2000/svg">
<g clip-path="url(#clip0_1663_7928)">
<path d="M65.4438 24.0855L66.4787 22.3315C66.7542 21.8644 66.5746 21.276 66.0775 21.0172C65.6635 20.8016 65.161 20.8834 64.845 21.1858C60.3347 8.6056 47.7398 0.00292969 33.4122 0.00292969C24.5518 0.00292969 16.2217 3.24445 9.95648 9.13051C3.69116 15.0166 0.240784 22.8423 0.240784 31.1664C0.240784 38.2513 2.70734 44.9278 7.37357 50.474C11.8993 55.8532 18.2683 59.7302 25.3076 61.3911C26.8187 61.7476 28.3842 61.9684 30.0936 62.066C30.1148 62.0672 30.136 62.0678 30.157 62.0678C30.6969 62.0678 31.15 61.6727 31.1832 61.1597C31.2176 60.6266 30.7858 60.1685 30.2184 60.136C28.6376 60.0458 27.1952 59.8429 25.8089 59.5157C11.9667 56.2496 2.29899 44.592 2.29899 31.1664C2.29899 15.0491 16.2564 1.93655 33.4122 1.93655C46.8091 1.93655 58.5908 9.95449 62.855 21.693C62.4345 21.6234 61.9952 21.8054 61.7767 22.1757C61.5011 22.6426 61.6807 23.2312 62.1777 23.4899L64.0159 24.4472C64.0706 24.4779 64.4269 24.6701 64.8574 24.5408C65.2332 24.4283 65.4071 24.1483 65.4438 24.0855Z" fill="#D3CDBF"/>
<path d="M50.9173 10.0999L11.1253 47.4832C10.7234 47.8609 10.7234 48.4729 11.1253 48.8505C11.3262 49.0392 11.5896 49.1336 11.8529 49.1336C12.1162 49.1336 12.3797 49.0392 12.5806 48.8505L52.3726 11.4672C52.7745 11.0895 52.7745 10.4775 52.3726 10.0999C51.9707 9.72257 51.319 9.72257 50.9173 10.0999Z" fill="#D3CDBF"/>
<path d="M13.4104 16.4346C9.1916 16.4346 7.75813 21.5935 9.98264 21.5935C10.5507 21.5935 11.0117 21.161 11.0117 20.6267C11.0117 19.3841 12.0878 18.3733 13.4102 18.3733C15.6166 18.3733 16.6529 20.9577 14.9856 22.326L9.30274 26.9911C8.58896 27.5771 9.03161 28.6858 9.97989 28.6858H16.8406C17.4089 28.6858 17.8697 28.2481 17.8697 27.714C17.8697 27.1799 17.4089 26.7472 16.8406 26.7472H12.7316L16.3432 23.7861C19.4342 21.2517 17.5276 16.4346 13.4104 16.4346Z" fill="#46525E"/>
<path d="M28.2279 24.1689H26.518L26.5126 17.4029C26.5121 16.8692 26.0516 16.437 25.4835 16.437C24.9155 16.437 24.4544 16.8696 24.4544 17.4038V24.1689H20.763C20.7842 24.1114 22.4652 19.5764 22.4818 19.5177C22.8466 18.2134 20.9542 17.7484 20.5323 18.8906L18.3394 24.8236C18.1075 25.4514 18.6045 26.1076 19.3115 26.1076H24.4542C24.4539 27.763 24.3658 28.0354 24.7568 28.4025C25.4042 29.0111 26.5178 28.575 26.5178 27.7165V26.1077H28.2278C28.7963 26.1077 29.2569 25.6749 29.2569 25.1409C29.257 24.5872 28.783 24.1689 28.2279 24.1689Z" fill="#46525E"/>
<path d="M44.9461 32.3573C44.7588 32.0727 44.428 31.8995 44.0718 31.8995H37.7693C37.2015 31.8995 36.7413 32.3319 36.7413 32.8653C36.7413 33.3987 37.2015 33.8311 37.7693 33.8311H42.4096L37.6688 42.7535C37.4153 43.2307 37.6215 43.8106 38.1295 44.0489C38.277 44.1181 38.4335 44.1508 38.5878 44.1508C38.9651 44.1508 39.3284 43.9549 39.5083 43.6162L44.9915 33.2968C45.1507 32.9972 45.1335 32.6419 44.9461 32.3573Z" fill="#46525E"/>
<path d="M60.3811 27.3249C58.609 27.6276 57.3218 29.0774 57.3218 30.7695V33.9482C57.3218 35.6408 58.6102 37.0911 60.3827 37.3938L60.7941 37.464C58.9189 46.9205 51.1958 54.4685 41.2959 56.6579C41.0439 54.9227 39.4664 53.629 37.6022 53.629H33.1327C31.2687 53.629 29.6913 54.9223 29.4395 56.6574C28.7071 61.7035 32.8379 65.2263 37.3323 64.9847C54.6525 64.0539 68.51 50.999 69.4184 34.6901C69.6655 30.2525 65.5399 26.4437 60.3811 27.3249Z" fill="#6C7A88"/>
<path d="M37.3323 64.9844C54.6525 64.0536 68.51 50.9987 69.4183 34.6898C69.4938 33.3344 69.1597 32.0387 68.5145 30.9164C66.7572 31.2858 65.4062 32.7165 65.3076 34.4879C64.5075 48.8515 52.3797 60.3024 37.0972 61.1236C35.2138 61.2248 33.6999 62.5009 33.313 64.1504C34.5209 64.7586 35.908 65.061 37.3323 64.9844Z" fill="#596775"/>
</g>
<defs>
<clipPath id="clip0_1663_7928">
<rect width="69.1881" height="65" fill="white" transform="translate(0.240784)"/>
</clipPath>
</defs>
</svg>
