<svg width="70" height="65" viewBox="0 0 70 65" fill="none" xmlns="http://www.w3.org/2000/svg">
<g clip-path="url(#clip0_1663_7882)">
<path d="M17.58 36.5373V47.1666H57.345C58.4811 47.1666 59.4021 46.3013 59.4021 45.234C59.4021 44.2956 59.4021 37.4738 59.4021 36.5373L38.491 33.9603L17.58 36.5373Z" fill="#8B9BA9"/>
<path d="M55.2877 36.022V43.3015H17.58V47.1667H57.345C58.4811 47.1667 59.4021 46.3014 59.4021 45.2341C59.4021 44.3448 59.4021 37.4096 59.4021 36.5373L55.2877 36.022Z" fill="#6C7A88"/>
<path d="M61.254 11.0692H23.7522C22.6162 11.0692 21.6951 11.9345 21.6951 13.0018V19.0245H7.97611C6.05173 19.0245 4.38436 20.2778 3.9621 22.0417L2.40512 28.5463C2.00522 30.2171 1.80334 31.9245 1.80334 33.637V47.1664H21.6951C21.6951 46.8519 21.6951 42.072 21.6951 36.5371H61.2541C62.3902 36.5371 63.3113 35.6718 63.3113 34.6045V13.0018C63.3111 11.9344 62.3902 11.0692 61.254 11.0692Z" fill="#FF7E40"/>
<path d="M68.7972 28.2375H63.3113V24.7695H66.0542C66.6224 24.7695 67.0828 24.3368 67.0828 23.8032C67.0828 23.2695 66.6224 22.8369 66.0542 22.8369H63.3113V19.3689H67.4257C67.9939 19.3689 68.4542 18.9362 68.4542 18.4026C68.4542 17.8689 67.9939 17.4363 67.4257 17.4363H63.3113V13.9681H68.7972C69.3654 13.9681 69.8258 13.5355 69.8258 13.0018C69.8258 12.4682 69.3654 12.0355 68.7972 12.0355H63.0338C62.678 11.4584 62.0151 11.0692 61.2541 11.0692H59.197V32.672H21.6951C21.6951 25.8735 21.6951 19.2079 21.6951 19.0243H17.5808V36.5372H14.4952C11.4964 36.5372 8.76851 37.641 6.74183 39.4361H1.80334V47.1666H21.6951C21.6951 46.9044 21.6951 42.1025 21.6951 36.5372H34.3744H61.2541C62.0151 36.5372 62.678 36.148 63.0338 35.5709H67.4257C67.9939 35.5709 68.4542 35.1383 68.4542 34.6046C68.4542 34.071 67.9939 33.6383 67.4257 33.6383H63.3113V30.1702H68.7972C69.3654 30.1702 69.8258 29.7376 69.8258 29.2039C69.8258 28.6702 69.3654 28.2375 68.7972 28.2375Z" fill="#FF6344"/>
<path d="M1.66585 47.1664H9.1944V43.3011H1.66585C1.09781 43.3011 0.637283 43.7338 0.637283 44.2675V46.2001C0.637283 46.7338 1.09781 47.1664 1.66585 47.1664Z" fill="#8B9BA9"/>
<path d="M17.5808 22.8895H7.73067L5.77489 31.0602H17.5808V22.8895Z" fill="#9DC6FB"/>
<path d="M13.7118 27.195H6.70005L5.77489 31.0602H17.5808V22.8895H13.7118V27.195Z" fill="#80B4FB"/>
<path d="M49.4593 53.9305C53.4358 53.9305 56.6593 50.9021 56.6593 47.1663C56.6593 43.4306 53.4358 40.4022 49.4593 40.4022C45.4829 40.4022 42.2594 43.4306 42.2594 47.1663C42.2594 50.9021 45.4829 53.9305 49.4593 53.9305Z" fill="#4D5967"/>
<path d="M50.932 40.5449C50.088 42.0097 50.324 43.8784 51.6419 45.1164L47.2781 49.2162C45.9603 47.978 43.9712 47.7561 42.4119 48.5491C43.0932 51.6177 45.9943 53.9304 49.46 53.9304C53.4301 53.9304 56.66 50.8961 56.66 47.1663C56.6598 43.9104 54.1983 41.185 50.932 40.5449Z" fill="#35404A"/>
<path d="M49.459 50.0654C51.1632 50.0654 52.5447 48.7675 52.5447 47.1665C52.5447 45.5655 51.1632 44.2676 49.459 44.2676C47.7549 44.2676 46.3733 45.5655 46.3733 47.1665C46.3733 48.7675 47.7549 50.0654 49.459 50.0654Z" fill="#FFF9EB"/>
<path d="M14.4949 53.9305C18.4713 53.9305 21.6948 50.9021 21.6948 47.1663C21.6948 43.4306 18.4713 40.4022 14.4949 40.4022C10.5185 40.4022 7.29492 43.4306 7.29492 47.1663C7.29492 50.9021 10.5185 53.9305 14.4949 53.9305Z" fill="#4D5967"/>
<path d="M15.9673 40.5449C15.1234 42.0097 15.3594 43.8784 16.6773 45.1164L12.3135 49.2162C10.9957 47.978 9.00655 47.7561 7.44725 48.5491C8.12857 51.6177 11.0297 53.9304 14.4954 53.9304C18.4655 53.9304 21.6953 50.8961 21.6953 47.1663C21.6953 43.9104 19.2338 41.185 15.9673 40.5449Z" fill="#35404A"/>
<path d="M14.4946 50.0654C16.1988 50.0654 17.5803 48.7675 17.5803 47.1665C17.5803 45.5655 16.1988 44.2676 14.4946 44.2676C12.7904 44.2676 11.4089 45.5655 11.4089 47.1665C11.4089 48.7675 12.7904 50.0654 14.4946 50.0654Z" fill="#FFF9EB"/>
<path d="M32.1027 21.8712V22.8375H33.4054C33.9735 22.8375 34.4337 23.2699 34.4337 23.8037C34.4337 24.3374 33.9735 24.77 33.4054 24.77H32.1027V26.7023C32.1027 27.2361 31.6422 27.6686 31.0743 27.6686C30.5064 27.6686 30.046 27.2362 30.046 26.7023V20.9051C30.046 20.3715 30.5064 19.9391 31.0743 19.9391H34.2282C34.7962 19.9391 35.2564 20.3715 35.2564 20.9051C35.2564 21.4389 34.7962 21.8714 34.2282 21.8714H32.1027V21.8712Z" fill="#FFF9EB"/>
<path d="M41.9049 26.0216C42.3045 26.4003 42.3019 27.0122 41.8987 27.3879C41.6979 27.5746 41.4363 27.668 41.1745 27.668C40.9098 27.668 40.6452 27.5727 40.4442 27.3821L38.7063 25.7357H38.1578V26.7017C38.1578 27.2355 37.6972 27.668 37.1293 27.668C36.5614 27.668 36.1011 27.2356 36.1011 26.7017V20.9045C36.1011 20.3709 36.5614 19.9385 37.1293 19.9385H39.135C40.8267 19.9385 42.203 21.2389 42.203 22.837C42.203 23.7799 41.7237 24.6187 40.9833 25.1485L41.9049 26.0216ZM40.1461 22.837C40.1461 22.3041 39.6924 21.8707 39.135 21.8707H38.1578V23.803H39.135C39.6924 23.803 40.1461 23.3696 40.1461 22.837Z" fill="#FFF9EB"/>
<path d="M48.5777 26.7016C48.5777 27.2354 48.1174 27.6679 47.5494 27.6679H44.3955C43.8276 27.6679 43.3672 27.2355 43.3672 26.7016V20.9044C43.3672 20.3707 43.8276 19.9384 44.3955 19.9384H47.5494C48.1174 19.9384 48.5777 20.3707 48.5777 20.9044C48.5777 21.4382 48.1174 21.8707 47.5494 21.8707H45.4239V22.837H46.7267C47.2947 22.837 47.7549 23.2694 47.7549 23.8032C47.7549 24.337 47.2947 24.7695 46.7267 24.7695H45.4239V25.7357H47.5494C48.1174 25.7355 48.5777 26.1679 48.5777 26.7016Z" fill="#FFF9EB"/>
<path d="M54.9596 26.7016C54.9596 27.2354 54.4994 27.6679 53.9313 27.6679H50.7775C50.2096 27.6679 49.7492 27.2355 49.7492 26.7016V20.9044C49.7492 20.3707 50.2096 19.9384 50.7775 19.9384H53.9313C54.4994 19.9384 54.9596 20.3707 54.9596 20.9044C54.9596 21.4382 54.4994 21.8707 53.9313 21.8707H51.8059V22.837H53.1086C53.6767 22.837 54.1369 23.2694 54.1369 23.8032C54.1369 24.337 53.6767 24.7695 53.1086 24.7695H51.8059V25.7357H53.9313C54.4994 25.7355 54.9596 26.1679 54.9596 26.7016Z" fill="#FFF9EB"/>
</g>
<defs>
<clipPath id="clip0_1663_7882">
<rect width="69.1881" height="65" fill="white" transform="translate(0.637283)"/>
</clipPath>
</defs>
</svg>
