<svg width="71" height="65" viewBox="0 0 71 65" fill="none" xmlns="http://www.w3.org/2000/svg">
<g clip-path="url(#clip0_1663_7941)">
<path d="M69.6558 24.2826C69.3981 24.0226 69.0268 23.8885 68.6487 23.8885H64.4985C62.8226 17.373 58.9037 11.4686 53.3689 7.16219C47.4367 2.54706 39.9218 0.00380859 32.2065 0C32.0795 0 31.9512 0.0255176 31.843 0.0881055C31.551 0.25708 31.4462 0.580811 31.5566 0.857568L35.2615 10.1463C35.3602 10.3943 35.6124 10.5584 35.8942 10.5584C44.6552 10.5584 52.3318 16.0847 54.6982 23.8885H51.1347C50.7565 23.8885 50.3853 24.0226 50.1276 24.2826C49.6419 24.7726 49.6444 25.4909 50.0699 25.9707L58.8536 35.873C59.1103 36.1625 59.4907 36.3299 59.8918 36.3299C60.2929 36.3299 60.6731 36.1626 60.93 35.873L69.7137 25.9707C70.1391 25.4909 70.1414 24.7726 69.6558 24.2826Z" fill="#507BE9"/>
<path d="M31.5137 29.834C39.7232 29.834 46.3783 23.5817 46.3783 15.8691C46.3783 8.15657 39.7232 1.9043 31.5137 1.9043C23.3042 1.9043 16.6491 8.15657 16.6491 15.8691C16.6491 23.5817 23.3042 29.834 31.5137 29.834Z" fill="#FFEE78"/>
<path d="M46.3783 15.8691C46.3783 8.15661 39.7232 1.9043 31.5137 1.9043V29.834C39.7232 29.834 46.3783 23.5817 46.3783 15.8691Z" fill="#FCD232"/>
<path d="M31.5137 31.7383C22.1996 31.7383 14.6221 24.6194 14.6221 15.8691C14.6221 7.1189 22.1996 0 31.5137 0C40.8277 0 48.4053 7.1189 48.4053 15.8691C48.4053 24.6194 40.8277 31.7383 31.5137 31.7383ZM31.5137 3.80859C24.435 3.80859 18.676 9.21896 18.676 15.8691C18.676 22.5193 24.435 27.9297 31.5137 27.9297C38.5924 27.9297 44.3513 22.5193 44.3513 15.8691C44.3513 9.21896 38.5924 3.80859 31.5137 3.80859Z" fill="#FCD232"/>
<path d="M44.3513 15.8691C44.3513 22.5193 38.5924 27.9297 31.5137 27.9297V31.7383C40.8278 31.7383 48.4053 24.6194 48.4053 15.8691C48.4053 7.1189 40.8278 0 31.5137 0V3.80859C38.5924 3.80859 44.3513 9.21896 44.3513 15.8691Z" fill="#F7B90F"/>
<path d="M36.919 19.043C36.919 16.2429 34.4942 13.9648 31.5137 13.9648C30.7686 13.9648 30.1624 13.3953 30.1624 12.6953C30.1624 11.9953 30.7686 11.4258 31.5137 11.4258C32.1537 11.4258 32.7104 11.8521 32.8375 12.4395C33.0602 13.4701 34.1308 14.136 35.2274 13.9268C36.3244 13.7174 37.0332 12.7122 36.8105 11.6815C36.4428 9.9808 35.1788 8.61732 33.5407 7.99068V7.61719C33.5407 6.56551 32.6331 5.71289 31.5137 5.71289C30.3942 5.71289 29.4867 6.56551 29.4867 7.61719V7.98903C27.5079 8.74402 26.1084 10.5685 26.1084 12.6953C26.1084 15.4954 28.5332 17.7734 31.5137 17.7734C32.2588 17.7734 32.865 18.3429 32.865 19.043C32.865 19.743 32.2588 20.3125 31.5137 20.3125C30.8737 20.3125 30.317 19.8862 30.1899 19.2988C29.9672 18.2682 28.8974 17.6026 27.8 17.8115C26.7028 18.0209 25.9942 19.0261 26.2169 20.0568C26.5846 21.7575 27.8486 23.1211 29.4866 23.7477V24.1211C29.4866 25.1728 30.3941 26.0254 31.5136 26.0254C32.633 26.0254 33.5406 25.1728 33.5406 24.1211V23.7492C35.5194 22.9943 36.919 21.1697 36.919 19.043Z" fill="#FCD232"/>
<path d="M31.5137 13.9648V17.7734C32.2588 17.7734 32.865 18.3429 32.865 19.043C32.865 19.743 32.2588 20.3125 31.5137 20.3125V26.0254C32.6331 26.0254 33.5407 25.1728 33.5407 24.1211V23.7492C35.5195 22.9943 36.919 21.1698 36.919 19.043C36.919 16.2429 34.4942 13.9648 31.5137 13.9648Z" fill="#F7B90F"/>
<path d="M32.8375 12.4395C33.0602 13.4701 34.1308 14.136 35.2274 13.9268C36.3244 13.7174 37.0332 12.7122 36.8105 11.6815C36.4428 9.9808 35.1788 8.61732 33.5407 7.99068V7.61719C33.5407 6.56551 32.6331 5.71289 31.5137 5.71289V11.4258C32.1537 11.4258 32.7104 11.8521 32.8375 12.4395Z" fill="#F7B90F"/>
<path d="M69.1708 44.5536C67.6726 42.5434 64.7235 42.0549 62.5838 43.4624L48.0848 53.0001C47.5168 53.3737 46.8404 53.5741 46.1471 53.5741H35.4326V62.4608H46.9991C49.0791 62.4608 51.1085 61.8597 52.8123 60.7388L68.0092 50.7419C70.1491 49.3344 70.6692 46.5637 69.1708 44.5536Z" fill="#FABE8C"/>
<path d="M48.0848 53.0005C47.5168 53.3741 46.8404 53.5744 46.1471 53.5744L35.4326 52.7939V57.383H46.3783C51.2216 57.383 55.162 53.6812 55.162 49.1311C55.162 48.8745 55.1477 48.6211 55.1232 48.3705L48.0848 53.0005Z" fill="#E6A578"/>
<path d="M69.1708 44.5537C67.6726 42.5435 64.7235 42.055 62.5838 43.4625L50.3898 51.4841C50.8444 50.8014 51.108 49.9953 51.108 49.1309C51.108 46.6769 48.9905 44.6875 46.3783 44.6875H34.892L33.5699 43.7559C30.9368 41.9006 27.6742 40.8789 24.3827 40.8789C21.608 40.8789 18.884 41.5877 16.5049 42.9288C16.5049 42.9288 14.2507 44.1995 12.9033 44.9589C12.2928 45.3031 11.9194 45.9229 11.9194 46.5918V60.5566C11.9194 61.6083 12.827 62.4609 13.9464 62.4609H46.9991C49.0791 62.4609 51.1085 61.8598 52.8123 60.7389L68.0092 50.742C70.1491 49.3345 70.6692 46.5639 69.1708 44.5537Z" fill="#FFD2AA"/>
<path d="M35.4326 62.4608H46.9991C49.0791 62.4608 51.1085 61.8597 52.8123 60.7388L68.0092 50.7419C70.1489 49.3344 70.6689 46.5637 69.1707 44.5536C67.6725 42.5434 64.7233 42.0549 62.5836 43.4624L50.3896 51.4839C50.8443 50.8013 51.108 49.9951 51.108 49.1307C51.108 46.6767 48.9905 44.6874 46.3783 44.6874H35.4326V62.4608Z" fill="#FABE8C"/>
<path d="M55.1232 48.3705L50.3898 51.4843C50.3604 51.5283 50.3311 51.5725 50.3002 51.6154C49.4503 52.7973 48.0109 53.5744 46.3783 53.5744H32.1894C31.0699 53.5744 30.1624 54.427 30.1624 55.4787C30.1624 56.5304 31.0699 57.383 32.1894 57.383H46.3783C51.2216 57.383 55.162 53.6812 55.162 49.1311C55.162 48.8745 55.1477 48.6211 55.1232 48.3705Z" fill="#FABE8C"/>
<path d="M13.9464 65H2.86548C1.74604 65 0.838486 64.1474 0.838486 63.0957V41.5137C0.838486 40.462 1.74604 39.6094 2.86548 39.6094H13.9464C15.0658 39.6094 15.9734 40.462 15.9734 41.5137V63.0957C15.9734 64.1474 15.0658 65 13.9464 65Z" fill="#6496F7"/>
<path d="M55.1232 48.3705L50.3898 51.4843C50.3604 51.5283 50.3311 51.5725 50.3002 51.6154C49.4503 52.7973 48.0109 53.5744 46.3783 53.5744H35.4326V57.383H46.3783C51.2216 57.383 55.162 53.6812 55.162 49.1311C55.162 48.8745 55.1477 48.6211 55.1232 48.3705Z" fill="#E6A578"/>
</g>
<defs>
<clipPath id="clip0_1663_7941">
<rect width="69.1881" height="65" fill="white" transform="translate(0.838486)"/>
</clipPath>
</defs>
</svg>
