<svg width="70" height="65" viewBox="0 0 70 65" fill="none" xmlns="http://www.w3.org/2000/svg">
<g clip-path="url(#clip0_1663_7908)">
<path d="M17.0117 36.5387L8.66574 58.7718L17.0625 58.6951L27.418 36.5387H17.0117Z" fill="#80AAFF"/>
<path d="M27.4176 36.5387L20.9009 59.9338L27.4641 65.0003L34.6334 45.2937V36.5387H27.4176Z" fill="#80AAFF"/>
<path d="M25.1516 36.5387L17.0629 58.6951L19.2708 58.675L20.9017 59.9338L29.4427 36.5387H25.1516Z" fill="#EAF1FF"/>
<path d="M52.2564 36.5387L60.6023 58.7718L52.2056 58.6951L41.8501 36.5387H52.2564Z" fill="#6680FF"/>
<path d="M41.85 36.5387L48.3667 59.9338L41.8035 65.0003L34.6342 45.2937V36.5387H41.85Z" fill="#6680FF"/>
<path d="M44.1163 36.5387L52.205 58.6951L49.9971 58.675L48.3663 59.9338L39.8253 36.5387H44.1163Z" fill="#B3CCFF"/>
<path d="M34.633 1.90625L33.1898 23.0483L34.633 43.3854C46.8252 43.3854 56.7089 34.1 56.7089 22.6459C56.7089 11.1917 46.8252 1.90625 34.633 1.90625Z" fill="#EAF1FF"/>
<path d="M12.5571 22.6459C12.5571 34.1 22.4408 43.3854 34.6331 43.3854V1.90625C22.4408 1.90625 12.5571 11.1917 12.5571 22.6459Z" fill="#F9F9F9"/>
<path d="M58.7383 22.6462C58.7383 10.159 47.9246 0 34.6329 0L33.1897 1.35585L34.6329 3.8132C45.6865 3.8132 54.6794 12.2616 54.6794 22.6462C54.6794 33.0307 45.6865 41.4791 34.6329 41.4791L33.1897 43.3857L34.6329 45.2923C47.9246 45.2923 58.7383 35.1333 58.7383 22.6462Z" fill="#FDAE02"/>
<path d="M34.6333 41.4791C23.5797 41.4791 14.5869 33.0307 14.5869 22.6462C14.5869 12.2616 23.5797 3.8132 34.6333 3.8132V0C21.3416 0 10.528 10.159 10.528 22.6462C10.528 35.1333 21.3416 45.2923 34.6333 45.2923V41.4791Z" fill="#FDCB02"/>
<path d="M46.7655 15.0947L40.4466 17.0357L34.6339 12.4161L33.1908 21.6925L34.6339 31.2679H46.7655V15.0947Z" fill="#FD9002"/>
<path d="M34.634 12.4161L28.8213 17.0357L22.5024 15.0947V31.2679H34.634V12.4161Z" fill="#FDAE02"/>
</g>
<defs>
<clipPath id="clip0_1663_7908">
<rect width="69.1881" height="65" fill="white" transform="translate(0.0396118)"/>
</clipPath>
</defs>
</svg>
